<?xml version="1.0" encoding="UTF-8" standalone="no"?>
<svg
   xmlns:dc="http://purl.org/dc/elements/1.1/"
   xmlns:cc="http://creativecommons.org/ns#"
   xmlns:rdf="http://www.w3.org/1999/02/22-rdf-syntax-ns#"
   xmlns:svg="http://www.w3.org/2000/svg"
   xmlns="http://www.w3.org/2000/svg"
   xmlns:sodipodi="http://sodipodi.sourceforge.net/DTD/sodipodi-0.dtd"
   xmlns:inkscape="http://www.inkscape.org/namespaces/inkscape"
   sodipodi:docname="bottom squiggle.svg"
   inkscape:version="1.0 (4035a4fb49, 2020-05-01)"
   id="svg190"
   version="1.1"
   viewBox="0 0 192.3812 51.608368"
   height="51.608368mm"
   width="192.3812mm">
  <defs
     id="defs184" />
  <sodipodi:namedview
     inkscape:window-maximized="0"
     inkscape:window-y="0"
     inkscape:window-x="192"
     inkscape:window-height="1030"
     inkscape:window-width="1424"
     showgrid="false"
     inkscape:document-rotation="0"
     inkscape:current-layer="layer1"
     inkscape:document-units="mm"
     inkscape:cy="486.09905"
     inkscape:cx="540.69786"
     inkscape:zoom="0.35"
     inkscape:pageshadow="2"
     inkscape:pageopacity="0.0"
     borderopacity="1.0"
     bordercolor="#666666"
     pagecolor="#ffffff"
     id="base" />
  <metadata
     id="metadata187">
    <rdf:RDF>
      <cc:Work
         rdf:about="">
        <dc:format>image/svg+xml</dc:format>
        <dc:type
           rdf:resource="http://purl.org/dc/dcmitype/StillImage" />
        <dc:title></dc:title>
      </cc:Work>
    </rdf:RDF>
  </metadata>
  <g
     transform="translate(37.22631,-19.552959)"
     id="layer1"
     inkscape:groupmode="layer"
     inkscape:label="Layer 1">
    <path
       style="fill:#2b2b33;stroke-width:0.264583"
       id="path253"
       d="m 155.15488,21.41966 c -2.28865,-2.518833 -6.46113,-2.256895 -9.42446,-0.587375 -2.96333,1.669521 -5.14615,4.410604 -7.69144,6.6675 -3.51367,3.114146 -7.88987,5.373688 -12.55977,5.842 -4.6699,0.468313 -9.6176,-0.994833 -12.90373,-4.347104 -1.41023,-1.436687 -2.49237,-3.175 -3.96875,-4.556125 -4.13279,-3.884083 -10.84792,-4.156604 -15.875,-1.553104 -5.02708,2.6035 -8.522229,7.58825 -10.453689,12.919604 -2.34156,6.458479 -3.39195,14.517688 -9.525,17.600084 -6.20977,3.119437 -13.721289,-1.185334 -18.094851,-6.588125 -2.135188,-2.645834 -3.921125,-5.577417 -6.400271,-7.88723 -2.479146,-2.309812 -5.918729,-3.96875 -9.228667,-3.225271 -4.249208,0.941917 -6.738937,5.275792 -8.4455,9.276292 -1.706562,4.0005 -3.463395,8.466667 -7.339541,10.44575 -1.899709,0.968375 -4.087813,1.198563 -6.220354,1.232959 C 10.909336,56.762702 4.6096075,55.315431 -0.27989252,51.632431 -7.2966425,46.35664 -10.431956,37.448118 -16.078164,30.730348 c -3.037417,-3.6195 -7.453313,-6.786563 -12.120566,-6.048375 -5.06412,0.79375 -8.41904,6.01927 -9.02758,11.1125 l 3.48985,35.366854 h 181.47507 z"
       class="cls-1" />
  </g>
</svg>
