<?xml version="1.0" encoding="UTF-8" standalone="no"?>
<svg
   xmlns:dc="http://purl.org/dc/elements/1.1/"
   xmlns:cc="http://creativecommons.org/ns#"
   xmlns:rdf="http://www.w3.org/1999/02/22-rdf-syntax-ns#"
   xmlns:svg="http://www.w3.org/2000/svg"
   xmlns="http://www.w3.org/2000/svg"
   xmlns:sodipodi="http://sodipodi.sourceforge.net/DTD/sodipodi-0.dtd"
   xmlns:inkscape="http://www.inkscape.org/namespaces/inkscape"
   width="135.46667"
   height="10.16"
   viewBox="0 0 135.46667 20.32"
   version="1.1"
   id="svg163"
   inkscape:version="1.0 (4035a4fb49, 2020-05-01)"
   sodipodi:docname="top squiggle.svg">
  <defs
     id="defs157" />
  <sodipodi:namedview
     id="base"
     pagecolor="#ffffff"
     bordercolor="#666666"
     borderopacity="1.0"
     inkscape:pageopacity="0.0"
     inkscape:pageshadow="2"
     inkscape:zoom="5.6"
     inkscape:cx="109.89398"
     inkscape:cy="16.755751"
     inkscape:document-units="mm"
     inkscape:current-layer="g14"
     inkscape:document-rotation="0"
     showgrid="false"
     inkscape:window-width="1920"
     inkscape:window-height="1001"
     inkscape:window-x="-9"
     inkscape:window-y="-9"
     inkscape:window-maximized="1" />
  <metadata
     id="metadata160">
    <rdf:RDF>
      <cc:Work
         rdf:about="">
        <dc:format>image/svg+xml</dc:format>
        <dc:type
           rdf:resource="http://purl.org/dc/dcmitype/StillImage" />
        <dc:title />
      </cc:Work>
    </rdf:RDF>
  </metadata>
  <g
     inkscape:label="Layer 1"
     inkscape:groupmode="layer"
     id="layer1"
     transform="translate(7.9999956)">
    <g
       transform="matrix(2.9239768,0,0,0.87335326,15.391804,1.5642397e-8)"
       id="g14">
      <g
         transform="translate(-23.164802)"
         id="g12">
        <path
           sodipodi:nodetypes="cccccccccsccccccc"
           style="fill:#2b2b33;stroke-width:0.139209"
           class="cls-1"
           d="m 82.754024,20.519728 c -2.639765,2.936971 -7.516217,3.403576 -11.474483,1.947292 -3.284946,-1.234578 -5.990037,-3.335402 -9.418133,-3.237322 -2.744709,0.0794 -5.262878,1.930488 -7.980211,2.419337 -5.043799,0.906083 -9.802556,-2.915969 -14.823952,-4.002647 -2.604056,-0.563578 -5.325121,-0.373643 -7.827106,0.692796 -2.345144,1.001051 -4.452538,2.73849 -6.788969,3.770677 -2.91145,1.277587 -6.064303,1.420358 -9.042001,0.40945 -3.100718,-1.063325 -5.9960512,-3.373682 -9.2112888,-3.358113 -2.6675389,0.01401 -5.1608113,1.640914 -7.8009661,2.111081 -2.6401548,0.470167 -5.5205962,-2.383439 -6.3869089,-4.20348 1.8833352,-1.482117 4.0990237,-2.419337 6.2860827,-2.933096 C 14.307507,10.379038 30.750903,10.965968 47.04493,11.56691 c 5.936299,0.219515 11.871357,0.43903 17.800194,0.798661 3.781606,0.230413 7.593088,0.524657 11.240263,1.802826 3.061576,1.075622 6.617447,0.219472 8.573809,2.900402 -0.298747,0.653874 -0.782879,1.906025 -1.905172,3.450929 z"
           id="path227" />
        <rect
           style="fill:#2b2b33;stroke-width:0.135466"
           class="cls-1"
           x="-7.9999948"
           y="1.2351097e-07"
           width="92.659195"
           height="17.068798"
           id="rect229" />
      </g>
    </g>
  </g>
</svg>
